<svg width="89" height="89" viewBox="0 0 89 89" fill="none" xmlns="http://www.w3.org/2000/svg">
<path d="M83.0628 21.5323C86.5984 19.5728 89 15.8047 89 11.4839C89 5.15195 83.848 0 77.5161 0C71.1842 0 66.0323 5.15195 66.0323 11.4839C66.0323 15.9181 68.563 19.7666 72.2522 21.6787L60.2903 26.1646V21.5323H54.5484V14.3548C54.5484 11.1882 51.9731 8.6129 48.8064 8.6129C45.6398 8.6129 43.0645 11.1882 43.0645 14.3548V21.5323H31.5806V27.2412L16.7478 21.6787C20.0322 19.9762 22.3892 16.7392 22.8687 12.9194H27.2742C29.6485 12.9194 31.5806 10.9872 31.5806 8.6129C31.5806 6.23861 29.6485 4.30645 27.2742 4.30645H20.4226C18.2493 1.60631 14.9721 0 11.4839 0C5.15195 0 0 5.15195 0 11.4839C0 15.8047 2.40156 19.5728 5.93716 21.5323C2.40156 23.4931 0 27.2613 0 31.5835V83.2581C0 86.4247 2.57526 89 5.74194 89C7.46452 89 8.99474 88.222 10.0484 87.0162C11.102 88.222 12.6323 89 14.3548 89C17.5215 89 20.0968 86.4247 20.0968 83.2581V35.2009L31.5806 39.5074V50.2419H60.2903V38.4308L68.9032 35.2009V83.2581C68.9032 86.4247 71.4785 89 74.6452 89C76.3677 89 77.898 88.222 78.9516 87.0162C80.0053 88.222 81.5355 89 83.2581 89C86.4247 89 89 86.4247 89 83.2581V31.5835C89 27.2613 86.5984 23.4931 83.0628 21.5323ZM77.5161 2.87097C82.2661 2.87097 86.129 6.73385 86.129 11.4839C86.129 13.4275 85.4744 15.2176 84.3835 16.6602L81.7781 12.1026C80.5838 10.0111 78.6674 8.44065 76.3835 7.6784C75.3844 7.34681 74.3451 7.17742 73.2915 7.17742H70.0688C71.5603 4.6079 74.3365 2.87097 77.5161 2.87097ZM68.9032 11.4839C68.9032 10.9944 68.9535 10.5164 69.0324 10.0484H73.2915C74.0351 10.0484 74.77 10.1675 75.4749 10.403C77.0883 10.9413 78.4406 12.0495 79.2846 13.5266L82.2303 18.6814C80.8766 19.5743 79.2574 20.0968 77.5161 20.0968C72.7661 20.0968 68.9032 16.2339 68.9032 11.4839ZM57.4194 24.4032V27.2412L54.5484 28.3178V24.4032H57.4194ZM51.6774 29.4978C49.8917 30.5327 48.828 32.4362 48.8251 34.4516H45.9355V20.0968H51.6774V29.4978ZM49.583 37.3226C49.6778 37.4848 49.7854 37.6355 49.8945 37.7862L48.8064 39.2361L47.371 37.3226H49.583ZM48.8064 11.4839C50.3898 11.4839 51.6774 12.7715 51.6774 14.3548V17.2258H45.9355V14.3548C45.9355 12.7715 47.2231 11.4839 48.8064 11.4839ZM28.7097 8.6129C28.7097 9.40385 28.0651 10.0484 27.2742 10.0484H15.242L15.4874 9.55745C16.221 8.08895 17.6966 7.17742 19.3388 7.17742H27.2742C28.0651 7.17742 28.7097 7.82195 28.7097 8.6129ZM11.4839 2.87097C13.4577 2.87097 15.3381 3.56143 16.8483 4.76437C15.1688 5.38306 13.7534 6.6061 12.9194 8.27413L12.0322 10.0484H3.00016C3.68776 5.98166 7.22479 2.87097 11.4839 2.87097ZM3.00016 12.9194H19.9676C19.2814 16.9861 15.7444 20.0968 11.4839 20.0968C7.22335 20.0968 3.68776 16.9861 3.00016 12.9194ZM17.2258 83.2581C17.2258 84.8414 15.9382 86.129 14.3548 86.129C12.7715 86.129 11.4839 84.8414 11.4839 83.2581V78.9516V57.6218C11.4839 56.1791 12.2016 54.8398 13.4017 54.0388L15.1515 52.8732L13.5596 50.4845L11.8097 51.6487C9.80866 52.9837 8.6129 55.2173 8.6129 57.6218V78.9516V83.2581C8.6129 84.8414 7.32527 86.129 5.74194 86.129C4.1586 86.129 2.87097 84.8414 2.87097 83.2581V31.5835C2.87097 26.8321 6.73529 22.9677 11.4867 22.9677C11.8284 22.9677 12.1657 23.028 12.4815 23.1457L35.4593 31.7615C36.9422 32.3185 37.6958 33.9765 37.1403 35.4579C36.6005 36.8934 34.8837 37.6743 33.4525 37.1417L10.4762 28.5259L9.46845 31.2146L17.2258 34.1243V83.2581ZM57.4194 47.371H34.4516V40.1935C36.8302 40.1935 38.9906 38.6963 39.8289 36.467C40.94 33.5042 39.4327 30.1882 36.4685 29.0743L34.4516 28.3178V24.4032H43.0645V36.3651L48.8064 44.0205L52.098 39.6323C52.8516 39.9911 53.6842 40.1935 54.5484 40.1935C55.2331 40.1935 55.9063 40.073 56.5552 39.8318L57.4194 39.5074V47.371ZM86.129 83.2581C86.129 84.8414 84.8414 86.129 83.2581 86.129C81.6747 86.129 80.3871 84.8414 80.3871 83.2581V78.9516V57.6218C80.3871 55.2173 79.1913 52.9851 77.1903 51.6501L75.4404 50.4845L73.8485 52.8732L75.5983 54.0388C76.7984 54.8384 77.5161 56.1791 77.5161 57.6218V78.9516V83.2581C77.5161 84.8414 76.2285 86.129 74.6452 86.129C73.0618 86.129 71.7742 84.8414 71.7742 83.2581V34.1243L79.5315 31.2146L78.5238 28.5259L55.5518 37.1403C54.1005 37.6786 52.398 36.8934 51.8597 35.4579C51.3042 33.9765 52.0578 32.3185 53.5392 31.7615L76.5127 23.1457C76.8343 23.028 77.1716 22.9677 77.5133 22.9677C82.2647 22.9677 86.129 26.8321 86.129 31.5835V83.2581Z" fill="#5EDBE8"/>
</svg>
