<svg width="29" height="33" viewBox="0 0 29 33" fill="none" xmlns="http://www.w3.org/2000/svg">
<path d="M0.127045 8.05124C0.044877 8.19282 0 8.35551 0 8.5249V23.6742C0 24.0128 0.180643 24.3258 0.474046 24.4952L13.5931 32.0698C13.7398 32.1545 13.9035 32.1969 14.0672 32.1969L24.342 7.97754L0.127045 8.05124Z" fill="#FFBB33"/>
<path d="M28.0091 8.05124L14.0684 7.97754L24.3437 26.411L27.662 24.4952C27.9553 24.3258 28.136 24.0128 28.136 23.6742V8.5249C28.1362 8.35551 28.0913 8.19282 28.0091 8.05124Z" fill="#E77300"/>
<path d="M24.3432 10.167L14.0684 7.97754V32.1969C14.2321 32.1969 14.3958 32.1545 14.5424 32.0698L24.3432 26.411V22.0321L22.447 19.8425L24.3432 17.6529V10.167Z" fill="#FF8810"/>
<path d="M24.3443 17.6504L17.8613 21.3933V25.7724L24.3443 22.0294V17.6504Z" fill="white"/>
<path d="M27.66 7.70167L14.5408 0.127044C14.2476 -0.0423481 13.8861 -0.0423481 13.5927 0.127044L7.0332 3.91372L8.92939 12.037H21.1004L28.0069 8.04905C27.9251 7.90734 27.8067 7.78637 27.66 7.70167Z" fill="#FF8810"/>
<path d="M7.03362 3.91211L0.473954 7.70005C0.327316 7.78475 0.208868 7.90573 0.126953 8.04744L14.0672 16.0957L21.1008 12.0354L7.03362 3.91211Z" fill="#FFAE0D"/>
</svg>
