<svg width="99" height="104" viewBox="0 0 99 104" fill="none" xmlns="http://www.w3.org/2000/svg">
<path d="M11.2926 45.0474V40.7103C10.1635 39.9808 9.24025 39.0013 8.60329 37.8573C7.96632 36.7133 7.63498 35.4394 7.63811 34.1466V20.7274C7.1535 20.7274 6.68874 20.5454 6.34606 20.2214C6.00339 19.8975 5.81087 19.4582 5.81087 19.0001V15.5455C5.81087 11.4226 7.54349 7.46852 10.6275 4.55318C13.7116 1.63783 17.8945 0 22.256 0C26.6175 0 30.8004 1.63783 33.8845 4.55318C36.9685 7.46852 38.7012 11.4226 38.7012 15.5455V17.2728H47.8373C48.322 17.2728 48.7867 17.4548 49.1294 17.7787C49.4721 18.1026 49.6646 18.542 49.6646 19.0001C49.6646 19.4582 49.4721 19.8975 49.1294 20.2214C48.7867 20.5454 48.322 20.7274 47.8373 20.7274H36.8739V29.3638C36.8701 32.2704 35.7605 35.0787 33.7477 37.276C31.7349 39.4733 28.9532 40.9129 25.9105 41.3321V44.9093H27.7377C31.1288 44.9129 34.3799 46.188 36.7778 48.4547C39.1757 50.7214 40.5245 53.7946 40.5284 57.0002V69.0912H44.1829V32.8183C44.1829 32.3602 44.3754 31.9209 44.7181 31.5969C45.0607 31.273 45.5255 31.091 46.0101 31.091H97.1728C97.6574 31.091 98.1221 31.273 98.4648 31.5969C98.8075 31.9209 99 32.3602 99 32.8183V74.273C99 74.7311 98.8075 75.1705 98.4648 75.4944C98.1221 75.8183 97.6574 76.0003 97.1728 76.0003H80.5449C80.1208 77.9497 78.9987 79.7013 77.3678 80.9598C75.7369 82.2183 73.6968 82.9069 71.5914 82.9094H66.1097V88.0912C66.1097 88.5494 65.9172 88.9887 65.5745 89.3126C65.2319 89.6366 64.7671 89.8185 64.2825 89.8185H53.3191C52.8344 89.8185 52.3697 89.6366 52.027 89.3126C51.6843 88.9887 51.4918 88.5494 51.4918 88.0912V86.364H40.5284V101.909C40.5284 102.368 40.3359 102.807 39.9932 103.131C39.6505 103.455 39.1858 103.637 38.7012 103.637H2.1564C1.67178 103.637 1.20702 103.455 0.864349 103.131C0.521675 102.807 0.329163 102.368 0.329163 101.909V57.0002C0.335037 54.0958 1.44577 51.2903 3.45856 49.0958C5.47135 46.9014 8.25192 45.4645 11.2926 45.0474ZM35.0467 15.5455C35.0467 12.3388 33.6991 9.26341 31.3004 6.99592C28.9017 4.72842 25.6483 3.45456 22.256 3.45456C18.8637 3.45456 15.6104 4.72842 13.2116 6.99592C10.8129 9.26341 9.46535 12.3388 9.46535 15.5455V17.2728H35.0467V15.5455ZM20.4288 38.0001H24.0833C26.5054 37.9974 28.8276 37.0866 30.5403 35.4676C32.253 33.8485 33.2165 31.6534 33.2194 29.3638V20.7274H11.2926V34.138C11.289 34.9783 11.5348 35.8027 12.0022 36.5175C12.4696 37.2324 13.1398 37.8089 13.9366 38.1815C14.2403 38.325 14.4958 38.5456 14.6743 38.8187C14.8528 39.0918 14.9472 39.4064 14.9471 39.7274V44.9093H22.256V41.4547H20.4288C19.9442 41.4547 19.4794 41.2727 19.1367 40.9488C18.7941 40.6249 18.6015 40.1855 18.6015 39.7274C18.6015 39.2693 18.7941 38.83 19.1367 38.5061C19.4794 38.1821 19.9442 38.0001 20.4288 38.0001ZM67.937 34.5456V46.8628L70.5773 45.1994C70.8776 45.0101 71.2305 44.909 71.5914 44.909C71.9524 44.909 72.3053 45.0101 72.6056 45.1994L75.2459 46.8628V34.5456H67.937ZM95.3455 34.5456H78.9004V50.0911C78.9004 50.4038 78.8107 50.7107 78.6407 50.9789C78.4707 51.2472 78.2269 51.4668 77.9352 51.6143C77.6435 51.7619 77.3149 51.8318 76.9845 51.8166C76.6541 51.8014 76.3342 51.7018 76.059 51.5282L71.5914 48.7093L67.1238 51.5247C66.8489 51.6981 66.5294 51.7978 66.1993 51.8131C65.8692 51.8284 65.5409 51.7588 65.2493 51.6117C64.9577 51.4646 64.7138 51.2455 64.5436 50.9777C64.3733 50.7099 64.2831 50.4035 64.2825 50.0911V34.5456H47.8373V69.0912H51.4918V67.3639C51.4918 66.9058 51.6843 66.4665 52.027 66.1425C52.3697 65.8186 52.8344 65.6366 53.3191 65.6366H64.2825C64.7671 65.6366 65.2319 65.8186 65.5745 66.1425C65.9172 66.4665 66.1097 66.9058 66.1097 67.3639V72.5457H95.3455V34.5456ZM71.5914 79.4549C72.7248 79.4535 73.83 79.1208 74.7555 78.5024C75.681 77.8839 76.3814 77.0099 76.7607 76.0003H66.1097V79.4549H71.5914ZM55.1463 86.364H62.4552V69.0912H55.1463V86.364ZM51.4918 72.5457H31.3922C29.9384 72.5457 28.5441 71.9998 27.5161 71.028C26.488 70.0562 25.9105 68.7382 25.9105 67.3639V60.4548C25.9105 59.0805 25.333 57.7625 24.3049 56.7907C23.2769 55.8189 21.8826 55.2729 20.4288 55.2729C18.9749 55.2729 17.5806 55.8189 16.5526 56.7907C15.5246 57.7625 14.9471 59.0805 14.9471 60.4548V70.8185C14.9509 74.0241 16.2998 77.0973 18.6976 79.364C21.0955 81.6307 24.3466 82.9058 27.7377 82.9094H51.4918V72.5457ZM27.7377 86.364C23.3777 86.3594 19.1976 84.7201 16.1146 81.8057C13.0316 78.8914 11.2974 74.94 11.2926 70.8185V60.4548C11.2926 58.1643 12.2551 55.9676 13.9685 54.3479C15.6819 52.7283 18.0057 51.8184 20.4288 51.8184C22.8518 51.8184 25.1757 52.7283 26.889 54.3479C28.6024 55.9676 29.565 58.1643 29.565 60.4548V67.3639C29.565 67.822 29.7575 68.2613 30.1002 68.5853C30.4428 68.9092 30.9076 69.0912 31.3922 69.0912H36.8739V57.0002C36.871 54.7105 35.9075 52.5154 34.1948 50.8964C32.482 49.2773 30.1599 48.3666 27.7377 48.3638H13.1198C10.6976 48.3666 8.37551 49.2773 6.66277 50.8964C4.95004 52.5154 3.98654 54.7105 3.98363 57.0002V93.2731H36.8739V86.364H27.7377ZM3.98363 100.182H36.8739V96.7276H3.98363V100.182Z" fill="#5EDBE8"/>
</svg>
