<svg width="118" height="102" viewBox="0 0 118 102" fill="none" xmlns="http://www.w3.org/2000/svg">
<path d="M110.176 98.2222C112.652 95.8195 114.194 92.4761 114.194 88.7776C114.194 82.3458 109.54 76.9775 103.4 75.8007C103.992 73.4395 104.677 69.231 104.677 62.3327C104.677 54.4483 98.8669 47.9618 96.0025 45.238C96.6591 44.1084 97.0645 42.8164 97.0645 41.4223C97.0645 39.8999 96.6154 38.4265 95.7627 37.1572C94.2763 34.9471 91.9791 33.5361 89.4516 33.1092V28.7911C89.4516 26.7738 88.6599 24.8773 87.221 23.4474L83.6525 19.9057C83.2281 17.197 80.8814 15.1097 78.0323 15.1097C74.8843 15.1097 72.3226 17.6522 72.3226 20.7765C72.3226 23.9007 74.8843 26.4432 78.0323 26.4432C79.8917 26.4432 81.5285 25.5441 82.5714 24.1746L84.5299 26.1183C85.2493 26.8342 85.6452 27.7825 85.6452 28.7911V33.2074L81.4657 34.0367V34.0386C81.3515 34.0291 81.2411 33.9989 81.1269 33.9989H68.4514C67.4065 33.9989 66.5577 33.1508 66.5577 32.11V28.8403C66.5577 26.2524 65.5338 23.9121 63.8989 22.1403C67.673 20.886 70.4194 17.384 70.4194 13.2208V11.3319H74.2258V7.55402H70.1681C69.2508 3.56273 65.9163 0.429011 61.8301 0.0417824C59.1675 -0.207555 56.4801 0.667015 54.5008 2.45204C52.5214 4.23707 51.3871 6.78711 51.3871 9.44294V13.2208C51.3871 15.5498 52.274 17.6578 53.6881 19.3069C50.9798 20.1153 48.6788 22.0439 47.4607 24.6695L38.9571 42.9977C38.3728 44.2557 38.0645 45.6497 38.0645 47.0324C38.0645 49.2387 38.8296 51.2674 40.1029 52.8881H37.7124C37.9275 52.295 38.0645 51.6641 38.0645 50.9992V47.0324V28.3321C38.0645 25.2079 35.5028 22.6654 32.3548 22.6654H9.51613C6.36819 22.6654 3.80645 25.2079 3.80645 28.3321V50.9992C3.80645 54.1234 6.36819 56.6659 9.51613 56.6659H26.177C25.3034 58.0165 24.7419 59.8374 24.7419 62.3327C24.7419 66.6866 29.0109 69.6409 33.531 72.769C35.1088 73.8608 36.7037 74.9639 38.1502 76.1331C36.9169 75.7591 35.6113 75.5551 34.2581 75.5551C26.9135 75.5551 20.9355 81.4863 20.9355 88.7776C20.9355 92.4761 22.4771 95.8195 24.9532 98.2222H0V102H49.4839V98.2222H43.5629C44.5374 97.2758 45.3672 96.184 46.0162 94.9789C47.3941 95.6381 49.6742 96.3332 53.2903 96.3332C56.5182 96.3332 60.711 96.0046 65.568 95.6249C72.117 95.1111 80.2343 94.4783 88.854 94.45C89.5335 95.8629 90.4489 97.1398 91.5642 98.2222H76.129V102H118V98.2222H110.176ZM78.0323 22.6654C76.9817 22.6654 76.129 21.8172 76.129 20.7765C76.129 19.7357 76.9817 18.8875 78.0323 18.8875C79.0828 18.8875 79.9355 19.7357 79.9355 20.7765C79.9355 21.8172 79.0828 22.6654 78.0323 22.6654ZM59.0228 83.1108C58.1436 83.0881 57.0968 82.7425 57.0968 81.2219C57.0968 77.7104 59.0952 74.5049 61.0269 71.4052C62.0889 69.7033 63.1053 68.0523 63.8037 66.3731C64.3385 67.48 64.6488 68.6568 64.6488 69.9091L64.7363 77.444H64.7097V81.2219C64.7097 81.8868 64.8467 82.5177 65.0599 83.1108H59.0228ZM29.2221 64.2216C28.7996 63.5888 28.5484 62.9598 28.5484 62.3327C28.5484 57.072 31.6506 56.6659 36.0338 56.6659H47.5464C52.5557 57.7086 57.5802 59.7713 60.8766 62.667C60.8404 63.1695 60.73 63.687 60.553 64.2216H29.2221ZM42.1203 45.4476L59.2779 49.5976C66.9593 51.4695 72.3226 58.1827 72.3226 65.9216V75.5551H68.5199L68.4552 69.8884C68.4552 60.4759 57.4717 54.4446 46.5872 52.6406C43.8541 52.1892 41.871 49.8299 41.871 47.0324C41.871 46.4979 41.9737 45.9671 42.1203 45.4476ZM68.5161 81.2219V79.333H72.3226C73.849 79.333 75.3963 80.2094 76.0053 81.4202C76.0872 81.5827 76.129 81.764 76.129 81.9435C76.129 82.5876 75.6056 83.1108 74.9605 83.1108H70.4194C69.3688 83.1108 68.5161 82.2627 68.5161 81.2219ZM79.4102 79.7334C78.7212 78.3602 77.5412 77.2476 76.129 76.5128V65.9216C76.129 57.4328 70.8685 49.9697 63.0329 46.853L63.6686 44.9584C64.6126 45.204 65.5814 45.3324 66.552 45.3324H75.4172C75.7693 45.3324 76.1176 45.3097 76.464 45.2814C77.2386 47.5009 79.3417 49.1102 81.8387 49.1102L79.374 52.3705C78.51 53.5171 78.0323 54.9376 78.0323 56.3694C78.0323 58.1506 78.7555 59.8469 80.0668 61.1483C81.439 62.5084 83.7419 65.4532 83.7419 69.8884C83.7419 75.3285 81.5913 80.8687 80.6149 83.1108H79.7813C79.8727 82.7349 79.9355 82.3477 79.9355 81.9435C79.9355 81.1803 79.7528 80.4153 79.4102 79.7334ZM82.7561 58.4736C82.1661 57.8862 81.8387 57.14 81.8387 56.3694C81.8387 55.7498 82.0443 55.134 82.4211 54.6372L86.5968 49.1102H86.8575C88.3744 50.4344 93.2581 55.2455 93.2581 62.3327C93.2581 70.3228 92.2836 76.4221 91.7507 79.1667C90.5536 80.2869 89.5696 81.6223 88.8521 83.1108H84.7335C85.9173 80.1112 87.5484 75.047 87.5484 69.8884C87.5484 64.0913 84.547 60.2492 82.7561 58.4736ZM91.5471 86.8886C91.7945 85.6854 92.2779 84.5672 92.9402 83.5774L95.7342 86.3503C95.6504 86.526 95.5781 86.7054 95.5134 86.8886H91.5471ZM100.871 90.6665C99.8204 90.6665 98.9677 89.8184 98.9677 88.7776C98.9677 87.7368 99.8204 86.8886 100.871 86.8886C101.922 86.8886 102.774 87.7368 102.774 88.7776C102.774 89.8184 101.922 90.6665 100.871 90.6665ZM102.774 94.0968C102.961 94.0307 103.142 93.9608 103.317 93.8776L106.111 96.6506C105.113 97.3079 103.987 97.7877 102.774 98.0333V94.0968ZM108.802 93.9778L106.008 91.2048C106.092 91.0292 106.164 90.8497 106.229 90.6665H110.193C109.947 91.8697 109.464 92.988 108.802 93.9778ZM106.23 86.8886C106.164 86.7035 106.093 86.5241 106.01 86.3503L108.804 83.5774C109.466 84.5672 109.949 85.6854 110.197 86.8886H106.23ZM103.317 83.6794C103.14 83.5963 102.959 83.5245 102.774 83.4603V79.5256C103.987 79.7712 105.113 80.251 106.111 80.9083L103.317 83.6794ZM98.9677 83.4584C98.7812 83.5245 98.6004 83.5944 98.4253 83.6775L95.6314 80.9045C96.6287 80.2472 97.7554 79.7674 98.9677 79.5219V83.4584ZM95.5115 90.6665C95.5781 90.8516 95.6485 91.031 95.7323 91.2048L92.9383 93.9778C92.276 92.988 91.7926 91.8697 91.5452 90.6665H95.5115ZM98.4253 93.8758C98.6023 93.9589 98.7831 94.0288 98.9677 94.0949V98.0295C97.7554 97.7839 96.6287 97.3041 95.6314 96.6468L98.4253 93.8758ZM100.871 62.3327C100.871 69.9035 99.9974 73.9401 99.5006 75.625C98.3016 75.7478 97.1559 76.0406 96.071 76.458C96.5659 73.075 97.0645 68.2186 97.0645 62.3327C97.0645 56.1389 94.1469 51.4752 91.7507 48.6834C92.3141 48.4963 92.8489 48.2583 93.3475 47.9561C95.7875 50.2852 100.871 55.9085 100.871 62.3327ZM92.5957 39.252C93.0297 39.898 93.2581 40.6479 93.2581 41.4223C93.2581 43.5795 91.49 45.3324 89.3184 45.3324H81.8387C81.144 45.3324 80.5597 44.9414 80.2286 44.3879C81.7416 43.7665 83.131 42.8485 84.3243 41.6622C85.3464 40.6441 85.8184 39.1878 85.5862 37.7673C85.5481 37.5387 85.4663 37.3234 85.3939 37.1062L86.7338 36.8398C89.0082 36.3903 91.3092 37.3366 92.5957 39.252ZM68.4514 37.7767H81.1269C81.2373 37.7767 81.3439 37.8032 81.4428 37.8523C81.7264 37.994 81.8064 38.2414 81.8292 38.3755C81.852 38.5115 81.8558 38.7703 81.6293 38.9951C79.9697 40.646 77.762 41.5546 75.4172 41.5546H66.552C63.3774 41.5546 61.084 39.9509 59.8926 37.1421L64.3557 36.0351C65.3929 37.1043 66.8413 37.7767 68.4514 37.7767ZM57.0625 5.24765C58.2654 4.16152 59.8184 3.64584 61.4685 3.80262C63.6248 4.00851 65.431 5.52154 66.2056 7.55402H55.5209C55.833 6.67945 56.3583 5.88421 57.0625 5.24765ZM55.1935 11.3319H66.6129V13.2208C66.6129 16.345 64.0512 18.8875 60.9032 18.8875C57.7553 18.8875 55.1935 16.345 55.1935 13.2208V11.3319ZM50.917 26.2505C51.9276 24.0726 54.1373 22.6654 56.5486 22.6654C59.9687 22.6654 62.7513 25.4345 62.7513 28.8403V32.11C62.7513 32.2535 62.7836 32.3876 62.7931 32.5274L59.0457 33.4568C59.0095 33.0148 58.9619 32.5822 58.9619 32.11V30.2211H55.1555V32.11C55.1555 37.6521 57.2681 41.326 60.1933 43.366L59.3959 45.7385L43.6429 41.9286L50.917 26.2505ZM19.0323 26.4432H22.8387V30.2211H19.0323V26.4432ZM7.6129 50.9992V28.3321C7.6129 27.2913 8.46555 26.4432 9.51613 26.4432H15.2258V33.9989H26.6452V26.4432H32.3548C33.4054 26.4432 34.2581 27.2913 34.2581 28.3321V50.9992C34.2581 52.04 33.4054 52.8881 32.3548 52.8881H9.51613C8.46555 52.8881 7.6129 52.04 7.6129 50.9992ZM39.6175 86.8886C39.5509 86.7035 39.4805 86.5241 39.3968 86.3503L42.1907 83.5774C42.853 84.5672 43.3364 85.6854 43.5839 86.8886H39.6175ZM36.1613 88.7776C36.1613 89.8184 35.3086 90.6665 34.2581 90.6665C33.2075 90.6665 32.3548 89.8184 32.3548 88.7776C32.3548 87.7368 33.2075 86.8886 34.2581 86.8886C35.3086 86.8886 36.1613 87.7368 36.1613 88.7776ZM36.7037 83.6794C36.5267 83.5963 36.3459 83.5245 36.1613 83.4603V79.5256C37.3736 79.7712 38.5004 80.251 39.4976 80.9083L36.7037 83.6794ZM32.3548 83.4584C32.1683 83.5245 31.9875 83.5944 31.8124 83.6775L29.0185 80.9045C30.0158 80.2472 31.1425 79.7674 32.3548 79.5219V83.4584ZM29.1213 86.3503C29.0375 86.526 28.9652 86.7054 28.9005 86.8886H24.9361C25.1835 85.6854 25.6669 84.5672 26.3292 83.5774L29.1213 86.3503ZM28.8986 90.6665C28.9652 90.8516 29.0356 91.031 29.1194 91.2048L26.3254 93.9778C25.6631 92.988 25.1797 91.8697 24.9323 90.6665H28.8986ZM31.8124 93.8758C31.9894 93.9589 32.1702 94.0288 32.3548 94.0949V98.0295C31.1425 97.7839 30.0158 97.3041 29.0185 96.6468L31.8124 93.8758ZM36.1613 94.0968C36.3478 94.0307 36.5286 93.9608 36.7037 93.8776L39.4976 96.6506C38.5004 97.3079 37.3736 97.7877 36.1613 98.0333V94.0968ZM42.1888 93.9778L39.3949 91.2048C39.4786 91.0292 39.5509 90.8497 39.6156 90.6665H43.5801C43.3345 91.8697 42.8511 92.988 42.1888 93.9778ZM47.5806 91.5429V85.3416C47.5806 77.886 40.9974 73.33 35.7102 69.6711C34.8956 69.1063 34.0963 68.551 33.3369 67.9994H58.6631C58.3795 68.466 58.0884 68.9382 57.7895 69.4161C55.6808 72.8011 53.2903 76.6356 53.2903 81.2219C53.2903 83.9533 54.7672 85.5248 56.4287 86.2936L53.9108 92.5422C53.7109 92.5441 53.4806 92.5554 53.2903 92.5554C50.1633 92.5554 48.3952 91.9377 47.5806 91.5429ZM65.2692 91.8565C62.6447 92.0624 60.2428 92.2456 58.0769 92.376L60.2885 86.8886H87.7006C87.6112 87.5082 87.5484 88.1353 87.5484 88.7776C87.5484 89.4255 87.6112 90.0583 87.7026 90.6816C79.3721 90.759 71.5936 91.3616 65.2692 91.8565Z" fill="#5EDBE8"/>
</svg>