<svg id="Layer_1" data-name="Layer 1" xmlns="http://www.w3.org/2000/svg" viewBox="0 0 73.52 71.37"><ellipse cx="36.76" cy="37.36" rx="20.99" ry="21" fill="#74c8da" opacity="0.28"/><path d="M44.18,28.36H30.36a2.34,2.34,0,0,0-1.63.66,2.22,2.22,0,0,0-.67,1.59V44.09a2.23,2.23,0,0,0,.67,1.59,2.34,2.34,0,0,0,1.63.66h6.91v-6.2H35V37.36h2.3V35.11a3.32,3.32,0,0,1,1-2.39,3.52,3.52,0,0,1,2.45-1H43v2.81H41.88c-.64,0-1.15,0-1.15.57v2.25H43.6l-1.15,2.8H40.73v6.2h3.45a2.34,2.34,0,0,0,1.63-.66,2.22,2.22,0,0,0,.67-1.59V30.63a2,2,0,0,0-.17-.87,2.23,2.23,0,0,0-.49-.73,2.52,2.52,0,0,0-.75-.5A2.47,2.47,0,0,0,44.18,28.36Z" fill="#fff"/></svg>