<svg width="31" height="28" viewBox="0 0 31 28" fill="none" xmlns="http://www.w3.org/2000/svg">
<g clip-path="url(#clip0)">
<path d="M5.96875 -0.0546875H26.844V13.9686H5.96875V-0.0546875Z" fill="#CCCCCC"/>
<path d="M3.50781 2.53809H24.3831V16.5618H3.50781V2.53809Z" fill="#E6E6E6"/>
<path d="M24.3831 4.34473V16.5616H3.50781V8.15107C3.81031 8.05216 4.13741 7.9979 4.47775 7.9979H12.622C13.6064 7.9979 14.5215 7.53733 15.0394 6.78025L15.8731 5.56238C16.3911 4.80594 17.3061 4.34473 18.2912 4.34473H24.3831Z" fill="#CCCCCC"/>
<path d="M15.873 6.82019L15.0395 8.03806C14.5216 8.79493 13.6068 9.2555 12.6217 9.2555H4.47716C2.90744 9.2555 1.63477 10.405 1.63477 11.823V25.3785C1.63477 26.7966 2.90744 27.9459 4.47716 27.9459H26.6286C28.1986 27.9459 29.4713 26.7966 29.4713 25.3785V8.16987C29.4713 6.75205 28.1986 5.60254 26.6286 5.60254H18.2909C17.3058 5.60254 16.391 6.06311 15.873 6.82019Z" fill="#FFBB33"/>
<path d="M16.6047 8.03806L17.4381 6.82019C17.9561 6.06311 18.8709 5.60254 19.8562 5.60254H18.2905C17.3052 5.60254 16.3904 6.06311 15.8724 6.82019L15.0392 8.03806C14.5212 8.79493 13.6064 9.25572 12.6211 9.25572H14.1868C15.1719 9.25572 16.0867 8.79493 16.6047 8.03806Z" fill="#F2A755"/>
<path d="M3.20047 25.3777V11.8222C3.20047 10.4042 4.47291 9.25488 6.04287 9.25488H4.47716C2.90744 9.25488 1.63477 10.4042 1.63477 11.8222V25.3777C1.63477 26.7957 2.90744 27.9452 4.47716 27.9452H6.04287C4.47291 27.9452 3.20047 26.7957 3.20047 25.3777Z" fill="#FF8810"/>
<path d="M15.4954 17.8574H6.91712C5.89917 17.8574 5.07422 17.1121 5.07422 16.1928V14.4546C5.07422 13.5352 5.89917 12.79 6.91712 12.79H15.4954C16.5133 12.79 17.3383 13.5352 17.3383 14.4546V16.1928C17.3383 17.1121 16.5133 17.8574 15.4954 17.8574Z" fill="#E6E6E6"/>
<path d="M14.5334 16.6699H7.87937C7.60288 16.6699 7.37891 16.4674 7.37891 16.2177C7.37891 15.9681 7.60288 15.7656 7.87937 15.7656H14.5334C14.8099 15.7656 15.0338 15.9681 15.0338 16.2177C15.0338 16.4674 14.8099 16.6699 14.5334 16.6699Z" fill="#1A414C"/>
<path d="M14.5334 14.8828H7.87937C7.60288 14.8828 7.37891 14.6805 7.37891 14.4308C7.37891 14.181 7.60288 13.9785 7.87937 13.9785H14.5334C14.8099 13.9785 15.0338 14.181 15.0338 14.4308C15.0338 14.6805 14.8099 14.8828 14.5334 14.8828Z" fill="#1A414C"/>
</g>
<defs>
<clipPath id="clip0">
<rect width="31" height="28" fill="white"/>
</clipPath>
</defs>
</svg>
