<svg id="Layer_1" data-name="Layer 1" xmlns="http://www.w3.org/2000/svg" viewBox="0 0 73.52 71.37"><circle cx="36.76" cy="36.71" r="21" transform="translate(-11.25 16.86) rotate(-22.5)" fill="#74c8da" opacity="0.28"/><path d="M39.11,45a13.22,13.22,0,0,0,1.4-4.44h4.33a8.61,8.61,0,0,1-2.37,2.8A9,9,0,0,1,39.11,45Zm-10.4-4.44H33A13.24,13.24,0,0,0,34.41,45a9.14,9.14,0,0,1-3.35-1.65,8.46,8.46,0,0,1-2.35-2.81Zm5.7-12.08A13.1,13.1,0,0,0,33,32.9H28.71a8.36,8.36,0,0,1,2.35-2.81,9.14,9.14,0,0,1,3.35-1.65ZM44.82,32.9H40.49a13.38,13.38,0,0,0-1.4-4.44,9.22,9.22,0,0,1,3.36,1.63A8.76,8.76,0,0,1,44.82,32.9Zm-4.16,1.43H45.4a8,8,0,0,1,0,4.76H40.66c.07-.78.1-1.58.1-2.38S40.73,35.11,40.66,34.33Zm-3.9-6.19c.4,0,1.05.69,1.59,2.22A17,17,0,0,1,39,32.89H34.56a14.83,14.83,0,0,1,.62-2.53C35.74,28.83,36.36,28.14,36.76,28.14Zm-9,8.57a8,8,0,0,1,.36-2.38h4.74c-.07.78-.1,1.58-.1,2.38s0,1.6.1,2.38H28.12A8.08,8.08,0,0,1,27.76,36.71Zm6.61,2.38c-.07-.77-.11-1.57-.11-2.38s0-1.62.11-2.38h4.78c.07.76.11,1.56.11,2.38s0,1.61-.11,2.38Zm2.39,6.19c-.4,0-1-.69-1.58-2.22a14.83,14.83,0,0,1-.62-2.53H39a17,17,0,0,1-.62,2.53C37.81,44.59,37.16,45.28,36.76,45.28ZM46.68,40a9.66,9.66,0,0,0,0-6.58.36.36,0,0,0,0-.09,10,10,0,0,0-3.84-4.8,10.93,10.93,0,0,0-12.08,0,10,10,0,0,0-3.84,4.8.36.36,0,0,0,0,.09,9.66,9.66,0,0,0,0,6.58.36.36,0,0,0,0,.09,10.07,10.07,0,0,0,3.84,4.8,10.93,10.93,0,0,0,12.08,0,10.07,10.07,0,0,0,3.84-4.8A.36.36,0,0,0,46.68,40Z" fill="#fff"/></svg>