<svg id="Layer_1" data-name="Layer 1" xmlns="http://www.w3.org/2000/svg" viewBox="0 0 73.52 71.37"><circle cx="36.76" cy="38.33" r="20.5" fill="#74c8da" opacity="0.28"/><path d="M42.4,40.52c-.27-.14-1.61-.8-1.87-.89s-.45-.14-.61.13a11.44,11.44,0,0,1-.87,1.07c-.15.18-.32.21-.59.07a7.3,7.3,0,0,1-2.2-1.34,7.85,7.85,0,0,1-1.52-1.88c-.16-.27,0-.41.12-.56a6.93,6.93,0,0,0,.68-.93.49.49,0,0,0,.05-.24.51.51,0,0,0-.07-.24c-.07-.13-.62-1.48-.85-2s-.44-.44-.61-.47h-.53a1,1,0,0,0-.4.1,1,1,0,0,0-.33.24,3.13,3.13,0,0,0-.72,1,3.07,3.07,0,0,0-.23,1.24A5.27,5.27,0,0,0,33,38.65a12.21,12.21,0,0,0,4.68,4.12,13.81,13.81,0,0,0,1.56.57,3.7,3.7,0,0,0,1.72.11,2.82,2.82,0,0,0,1.85-1.3,2.27,2.27,0,0,0,.16-1.29c0-.1-.25-.2-.53-.33Zm-5,6.78A9.07,9.07,0,0,1,32.78,46l-.34-.2L29,46.73l.92-3.3-.21-.35a9.12,9.12,0,1,1,7.71,4.25Zm7.74-16.78A11,11,0,0,0,26.67,36.1a10.84,10.84,0,0,0,1.25,7.58l-1.55,5.65,5.81-1.51a10.92,10.92,0,0,0,13-17.3Z" fill="#fff" fill-rule="evenodd"/></svg>