<svg id="Capa_1" x="0px" y="0px" viewBox="0 0 400 400" xml:space="preserve"><style type="text/css">
	.service0{display:none;fill:#D37B40;}
	.service1{fill:#FFFFFF;}
	.service2{clip-path:url(#SVGID_2_);fill:#FFFFFF;}
	.service3{clip-path:url(#SVGID_4_);fill:#FFFFFF;}
</style><rect x="-6" y="-8" class="service0" width="408" height="408"></rect><g><path class="service1" d="M325.5,149.4c-1.2-1.7-3.1-2.7-5.2-2.7h-70.5v-34.1c0-3.4-2.8-6.1-6.3-6.1H38.3c-3.5,0-6.3,2.7-6.3,6.1v150.2 c0,3.4,2.8,6.1,6.3,6.1h18.9c2.9,14.1,15.8,24.8,31.2,24.8c15.4,0,28.3-10.7,31.2-24.8h21.3c3.5,0,6.3-2.7,6.3-6.1 c0-3.4-2.8-6.1-6.3-6.1h-21.3c-2.9-14.1-15.8-24.8-31.2-24.8c-15.4,0-28.3,10.7-31.2,24.8H44.6V118.7h192.5v34.1v103.8h-73.8 c-3.5,0-6.3,2.7-6.3,6.1c0,3.4,2.8,6.1,6.3,6.1h80.1h13.1c2.9,14.1,15.8,24.8,31.2,24.8c15.4,0,28.3-10.7,31.2-24.8h42.7 c3.5,0,6.3-2.7,6.3-6.1v-50c0-1.2-0.4-2.4-1.1-3.4L325.5,149.4z M88.4,244c10.6,0,19.2,8.4,19.2,18.6c0,10.3-8.6,18.6-19.2,18.6 c-10.6,0-19.2-8.4-19.2-18.6C69.2,252.4,77.8,244,88.4,244z M287.8,281.3c-10.6,0-19.2-8.4-19.2-18.6c0-10.3,8.6-18.6,19.2-18.6 c10.6,0,19.2,8.4,19.2,18.6C307,273,298.4,281.3,287.8,281.3z M355.4,256.6H319c-2.9-14.1-15.8-24.8-31.2-24.8 c-15.4,0-28.3,10.7-31.2,24.8h-6.8v-97.7h67.1l38.5,55.6V256.6z"></path><path class="service1" d="M66.6,176.3h18.3c3.5,0,6.3-2.7,6.3-6.1c0-3.4-2.8-6.1-6.3-6.1H66.6c-3.5,0-6.3,2.7-6.3,6.1 C60.3,173.6,63.1,176.3,66.6,176.3z"></path><path class="service1" d="M215.2,164.1H106.5c-3.5,0-6.3,2.7-6.3,6.1c0,3.4,2.8,6.1,6.3,6.1h108.6c3.5,0,6.3-2.7,6.3-6.1 C221.5,166.8,218.6,164.1,215.2,164.1z"></path><path class="service1" d="M215.2,198.9h-18.3c-3.5,0-6.3,2.7-6.3,6.1c0,3.4,2.8,6.1,6.3,6.1h18.3c3.5,0,6.3-2.7,6.3-6.1 C221.5,201.6,218.6,198.9,215.2,198.9z"></path><path class="service1" d="M66.6,211.2h108.6c3.5,0,6.3-2.7,6.3-6.1c0-3.4-2.8-6.1-6.3-6.1H66.6c-3.5,0-6.3,2.7-6.3,6.1 C60.3,208.4,63.1,211.2,66.6,211.2z"></path><path class="service1" d="M308.2,169.4h-40.6c-3.5,0-6.3,2.7-6.3,6.1v33.2c0,3.4,2.8,6.1,6.3,6.1l63.5,0c2.3,0,4.5-1.3,5.6-3.2 c1.1-2,1-4.4-0.3-6.3l-22.9-33.2C312.2,170.5,310.3,169.4,308.2,169.4z M273.9,202.6v-20.9h30.9l14.5,20.9H273.9z"></path></g></svg>